<?xml version="1.0" encoding="utf-8"?>
<!-- Generator: Adobe Illustrator 22.0.1, SVG Export Plug-In . SVG Version: 6.00 Build 0)  -->
<svg version="1.1" id="Layer_1" xmlns="http://www.w3.org/2000/svg" xmlns:xlink="http://www.w3.org/1999/xlink" x="0px" y="0px"
	 viewBox="0 0 391.3 200.3" style="enable-background:new 0 0 391.3 200.3;" xml:space="preserve">
<style type="text/css">
	.st0{opacity:0.13;fill:#010202;enable-background:new    ;}
	.st1{fill:#3EC13C;}
	.st2{fill:#237636;}
	.st3{fill:#50B053;}
	.st4{fill:#E06060;}
	.st5{fill:#934747;}
	.st6{fill:#BA6060;}
	.st7{fill:#1486D8;}
	.st8{fill:#16577F;}
	.st9{fill:#1774AD;}
</style>
<path class="st0" d="M193,59h6V19L186.8,8.8l-1.5,39.5l0.3,0.7H-0.1l6.9,10H193"/>
<path class="st1" d="M7,0h186v38H7V0z"/>
<path class="st2" d="M-0.1,49h185.9l7.2-11H7L-0.1,49z"/>
<path class="st3" d="M-0.1,49L7,38V0L0,10L-0.1,49z"/>
<path class="st0" d="M392,51h-1V18.5l-5.2-10.1l-1.6,39.1l0.3,0.5H199.2l6.9,3h185.4l0.5,0.1V51z"/>
<path class="st1" d="M201,7h185v39H201V7z"/>
<path class="st2" d="M199,48h185.5l1.9-2H200.8L199,48z"/>
<path class="st3" d="M199,48l2-2.2V7.1l-2,2.4V48z"/>
<path class="st0" d="M193.6,129h-0.4h6.4V89.5l-12.2-10.2l-1.5,39.2l0.2,0.5H0.8l6.9,10h185.4l0.5,0.1V129z"/>
<path class="st4" d="M7.6,70h185.6v39H7.6V70z"/>
<path class="st5" d="M0.6,119h185.7l6.9-10H7.4L0.6,119z"/>
<path class="st6" d="M0.6,119l7-10.2V70.1l-7,10.4V119z"/>
<g>
	<path class="st0" d="M391.9,122.8h-1V90.2l-5.2-10.2l-1.6,39.2l0.3,0.5H199.1l6.9,3h185.4l0.5,0.1V122.8z"/>
	<path class="st4" d="M200.9,78.8h185v39h-185V78.8z"/>
	<path class="st5" d="M199.1,119.8h185.5l1.9-2H200.9L199.1,119.8z"/>
	<path class="st6" d="M198.9,119.8l2-2.2V78.9l-2,2.4V119.8z"/>
</g>
<path class="st0" d="M193.4,200.1H193h6.4v-39.5l-12.2-10.2l-1.5,39.2l0.2,0.5H0.6l6.9,10h185.4l0.5,0.1V200.1z"/>
<path class="st7" d="M7.4,141.1H193v39H7.4V141.1z"/>
<path class="st8" d="M0.6,190.1h185.5l6.9-10H7.4L0.6,190.1z"/>
<path class="st9" d="M0.4,190.1l7-10.2v-38.7l-7,10.4V190.1z"/>
<g>
	<path class="st0" d="M391.9,193.4h-1v-32.5l-5.2-10.2l-1.6,39.2l0.3,0.5H199.1l6.9,3h185.4l0.5,0.1V193.4z"/>
	<path class="st7" d="M200.9,149.4h185v39h-185V149.4z"/>
	<path class="st8" d="M199.1,190.4h185.5l1.9-2H200.9L199.1,190.4z"/>
	<path class="st9" d="M198.9,190.4l2-2.2v-38.7l-2,2.4V190.4z"/>
</g>
</svg>
